<svg xmlns="http://www.w3.org/2000/svg" width="40.017" height="40.017" viewBox="0 0 40.017 40.017">
  <path id="_ionicons_svg_ios-checkmark-circle" d="M68.008,48A20.008,20.008,0,1,0,88.017,68.008,20.005,20.005,0,0,0,68.008,48ZM78.253,62.477,65.392,75.4h-.01a1.737,1.737,0,0,1-1.116.529,1.684,1.684,0,0,1-1.125-.548L57.754,69.99a.383.383,0,0,1,0-.548l1.712-1.712a.372.372,0,0,1,.539,0L64.276,72,76.012,60.178a.38.38,0,0,1,.269-.115.349.349,0,0,1,.269.115l1.683,1.741A.379.379,0,0,1,78.253,62.477Z" transform="translate(-48 -48)" fill="#01b160"/>
</svg>
